<svg id="Arte" xmlns="http://www.w3.org/2000/svg" viewBox="0 0 297 93"><defs><style>.cls-1{fill:#383838;}.cls-2{fill:#4675dc;}.cls-3{fill:#f9f9f9;}.cls-4{fill:#698ee1;}.cls-5{fill:#fff;}</style></defs><title>banner-parcele</title><path class="cls-1" d="M165.95,37.91v4.45h-1.5V31h4.2a4.22,4.22,0,0,1,2.93,1,3.23,3.23,0,0,1,1.06,2.52,3.19,3.19,0,0,1-1,2.55,4.41,4.41,0,0,1-3,.89Zm0-1.23h2.7a2.7,2.7,0,0,0,1.84-.57,2.08,2.08,0,0,0,.64-1.64,2.15,2.15,0,0,0-.64-1.63,2.53,2.53,0,0,0-1.76-.63h-2.78Z"/><path class="cls-1" d="M179.45,42.36a3,3,0,0,1-.2-.89,3.22,3.22,0,0,1-2.41,1,3,3,0,0,1-2.05-.71A2.28,2.28,0,0,1,174,40,2.39,2.39,0,0,1,175,38a4.73,4.73,0,0,1,2.82-.73h1.41v-.66a1.63,1.63,0,0,0-.45-1.21,1.82,1.82,0,0,0-1.34-.45,2.11,2.11,0,0,0-1.3.39,1.15,1.15,0,0,0-.52.95h-1.45a2,2,0,0,1,.45-1.22,3.06,3.06,0,0,1,1.22-.93,4.1,4.1,0,0,1,1.69-.34,3.35,3.35,0,0,1,2.29.73,2.64,2.64,0,0,1,.86,2v3.89a4.73,4.73,0,0,0,.3,1.85v.13Zm-2.4-1.1a2.54,2.54,0,0,0,1.29-.35,2.13,2.13,0,0,0,.88-.91V38.26h-1.13q-2.66,0-2.66,1.55a1.31,1.31,0,0,0,.45,1.06A1.74,1.74,0,0,0,177.05,41.26Z"/><path class="cls-1" d="M187,35.21a4.38,4.38,0,0,0-.71-.05,1.9,1.9,0,0,0-1.93,1.21v6h-1.45V33.91h1.41l0,1a2.25,2.25,0,0,1,2-1.13,1.48,1.48,0,0,1,.64.11Z"/><path class="cls-1" d="M191.59,41.34a2.08,2.08,0,0,0,1.35-.47,1.66,1.66,0,0,0,.64-1.17h1.37a2.64,2.64,0,0,1-.5,1.38,3.32,3.32,0,0,1-1.23,1,3.55,3.55,0,0,1-1.63.39,3.48,3.48,0,0,1-2.75-1.15,4.59,4.59,0,0,1-1-3.15V38a5.08,5.08,0,0,1,.45-2.2,3.44,3.44,0,0,1,1.3-1.49,3.69,3.69,0,0,1,2-.53,3.4,3.4,0,0,1,2.36.85,3.05,3.05,0,0,1,1,2.21h-1.37a2,2,0,0,0-.62-1.35,1.93,1.93,0,0,0-1.38-.53,2,2,0,0,0-1.71.79,3.72,3.72,0,0,0-.61,2.29v.27a3.64,3.64,0,0,0,.6,2.25A2,2,0,0,0,191.59,41.34Z"/><path class="cls-1" d="M200.08,42.52a3.69,3.69,0,0,1-2.8-1.13,4.19,4.19,0,0,1-1.08-3V38.1a5.07,5.07,0,0,1,.48-2.25A3.75,3.75,0,0,1,198,34.31a3.38,3.38,0,0,1,1.87-.56,3.17,3.17,0,0,1,2.56,1.09,4.7,4.7,0,0,1,.91,3.11v.6h-5.73a3,3,0,0,0,.73,2,2.3,2.3,0,0,0,1.78.77,2.53,2.53,0,0,0,1.3-.31,3.26,3.26,0,0,0,.93-.83l.88.69A3.55,3.55,0,0,1,200.08,42.52Zm-.18-7.58a1.93,1.93,0,0,0-1.47.64,3.09,3.09,0,0,0-.73,1.79h4.23v-.11a2.77,2.77,0,0,0-.59-1.71A1.82,1.82,0,0,0,199.9,34.94Z"/><path class="cls-1" d="M206.62,42.36h-1.45v-12h1.45Z"/><path class="cls-1" d="M212.44,42.52a3.69,3.69,0,0,1-2.8-1.13,4.19,4.19,0,0,1-1.08-3V38.1a5.07,5.07,0,0,1,.48-2.25,3.75,3.75,0,0,1,1.34-1.55,3.38,3.38,0,0,1,1.87-.56,3.17,3.17,0,0,1,2.56,1.09,4.7,4.7,0,0,1,.91,3.11v.6H210a3,3,0,0,0,.73,2,2.3,2.3,0,0,0,1.78.77,2.53,2.53,0,0,0,1.3-.31,3.26,3.26,0,0,0,.93-.83l.88.69A3.55,3.55,0,0,1,212.44,42.52Zm-.18-7.58a1.93,1.93,0,0,0-1.47.64,3.09,3.09,0,0,0-.73,1.79h4.23v-.11a2.77,2.77,0,0,0-.59-1.71A1.82,1.82,0,0,0,212.26,34.94Z"/><path class="cls-1" d="M224.88,42.52a3.69,3.69,0,0,1-2.8-1.13,4.19,4.19,0,0,1-1.08-3V38.1a5.07,5.07,0,0,1,.48-2.25,3.75,3.75,0,0,1,1.34-1.55,3.38,3.38,0,0,1,1.87-.56,3.17,3.17,0,0,1,2.56,1.09,4.7,4.7,0,0,1,.91,3.11v.6h-5.73a3,3,0,0,0,.73,2,2.3,2.3,0,0,0,1.78.77,2.53,2.53,0,0,0,1.3-.31,3.26,3.26,0,0,0,.93-.83l.88.69A3.55,3.55,0,0,1,224.88,42.52Zm-.18-7.58a1.93,1.93,0,0,0-1.47.64,3.09,3.09,0,0,0-.73,1.79h4.23v-.11a2.77,2.77,0,0,0-.59-1.71A1.82,1.82,0,0,0,224.7,34.94Z"/><path class="cls-1" d="M231.21,33.91l0,.94a3.12,3.12,0,0,1,2.51-1.09,2.42,2.42,0,0,1,2.41,1.36,3.2,3.2,0,0,1,1.1-1,3.24,3.24,0,0,1,1.6-.37q2.78,0,2.83,2.95v5.66h-1.45V36.78a2,2,0,0,0-.41-1.36,1.83,1.83,0,0,0-1.39-.45,1.91,1.91,0,0,0-1.34.48,1.94,1.94,0,0,0-.62,1.29v5.61H235V36.82a1.61,1.61,0,0,0-1.8-1.84,1.93,1.93,0,0,0-1.95,1.21v6.17h-1.45V33.91Z"/><path class="cls-1" d="M180.66,62.36a3,3,0,0,1-.2-.89,3.22,3.22,0,0,1-2.41,1,3,3,0,0,1-2.05-.71,2.28,2.28,0,0,1-.8-1.79,2.39,2.39,0,0,1,1-2.05,4.73,4.73,0,0,1,2.82-.73h1.41v-.66a1.63,1.63,0,0,0-.45-1.21,1.82,1.82,0,0,0-1.34-.45,2.1,2.1,0,0,0-1.3.39,1.15,1.15,0,0,0-.52.95h-1.45a2,2,0,0,1,.45-1.22A3.06,3.06,0,0,1,177,54.1a4.09,4.09,0,0,1,1.69-.34,3.34,3.34,0,0,1,2.29.73,2.64,2.64,0,0,1,.86,2v3.89a4.73,4.73,0,0,0,.3,1.85v.13Zm-2.4-1.1a2.54,2.54,0,0,0,1.29-.35,2.13,2.13,0,0,0,.88-.91V58.26H179.3q-2.66,0-2.66,1.55a1.31,1.31,0,0,0,.45,1.06A1.74,1.74,0,0,0,178.26,61.26Z"/><path class="cls-1" d="M186.1,51.86v2h1.58V55H186.1v5.25a1.17,1.17,0,0,0,.21.76.89.89,0,0,0,.72.25,3.52,3.52,0,0,0,.69-.09v1.17a4.22,4.22,0,0,1-1.11.16,1.8,1.8,0,0,1-1.46-.59,2.52,2.52,0,0,1-.49-1.66V55h-1.54V53.91h1.54v-2Z"/><path class="cls-1" d="M192.87,62.52a3.69,3.69,0,0,1-2.8-1.13,4.19,4.19,0,0,1-1.08-3V58.1a5.07,5.07,0,0,1,.48-2.25,3.74,3.74,0,0,1,1.34-1.55,3.38,3.38,0,0,1,1.87-.56,3.17,3.17,0,0,1,2.56,1.09,4.7,4.7,0,0,1,.91,3.11v.6h-5.73a3,3,0,0,0,.73,2,2.3,2.3,0,0,0,1.78.77,2.53,2.53,0,0,0,1.3-.31,3.26,3.26,0,0,0,.93-.83l.88.69A3.55,3.55,0,0,1,192.87,62.52Zm-.18-7.58a1.92,1.92,0,0,0-1.47.64,3.09,3.09,0,0,0-.73,1.79h4.23v-.11a2.76,2.76,0,0,0-.59-1.71A1.82,1.82,0,0,0,192.7,54.94Zm.7-4.58h1.75l-2.09,2.3h-1.16Z"/><path class="cls-1" d="M207,62.36h-2.26v-8.7l-2.7.84V52.66L206.73,51H207Z"/><path class="cls-1" d="M218.46,62.36h-7.8V60.82l3.68-3.92a9.16,9.16,0,0,0,1.12-1.45,2.32,2.32,0,0,0,.36-1.17,1.74,1.74,0,0,0-.38-1.19,1.38,1.38,0,0,0-1.09-.43,1.49,1.49,0,0,0-1.21.53,2.08,2.08,0,0,0-.44,1.39h-2.27a3.72,3.72,0,0,1,.5-1.9,3.48,3.48,0,0,1,1.4-1.35,4.26,4.26,0,0,1,2.05-.49,4,4,0,0,1,2.73.84,3,3,0,0,1,1,2.38,3.83,3.83,0,0,1-.44,1.72,9.66,9.66,0,0,1-1.5,2l-2.59,2.73h4.89Z"/><path class="cls-1" d="M223.16,56.43l1.42-2.52H227L224.59,58l2.51,4.31h-2.42l-1.51-2.66-1.5,2.66h-2.43L221.74,58l-2.4-4.14h2.42Z"/><path class="cls-1" d="M229.44,60.1a1.27,1.27,0,0,1,.92.34,1.23,1.23,0,0,1,0,1.71,1.27,1.27,0,0,1-.92.34,1.25,1.25,0,0,1-.91-.34,1.13,1.13,0,0,1-.35-.85,1.14,1.14,0,0,1,.35-.86A1.24,1.24,0,0,1,229.44,60.1Zm.94-1.23H228.5L228.23,51h2.41Z"/><rect class="cls-2" x="69.7" y="13.86" width="65.91" height="46.75" rx="5.44" ry="5.44"/><path class="cls-1" d="M75.23,14.71a4.84,4.84,0,0,0-4.83,4.83V55a4.83,4.83,0,0,0,4.83,4.83h54.85A4.84,4.84,0,0,0,134.91,55V19.53a4.84,4.84,0,0,0-4.83-4.83Zm54.85,46.56H75.23A6.24,6.24,0,0,1,69,55V19.53a6.24,6.24,0,0,1,6.23-6.23h54.85a6.24,6.24,0,0,1,6.24,6.23V55A6.24,6.24,0,0,1,130.08,61.26Z"/><path class="cls-1" d="M134.91,33.58V27.15H70.4v6.43M136.32,35H69V25.75h67.32V35Z"/><path class="cls-1" d="M78.7,52H98.13V47H78.7Zm20.84,1.4H77.29V45.56H99.54Z"/><rect class="cls-3" x="57.22" y="30.14" width="65.91" height="45.15" rx="5.44" ry="5.44"/><rect class="cls-3" x="55.22" y="33.14" width="65.91" height="45.15" rx="5.44" ry="5.44"/><rect class="cls-4" x="55.22" y="32.59" width="65.91" height="46.24" rx="5.44" ry="5.44"/><rect class="cls-5" x="63.28" y="65.03" width="20.75" height="6.17"/><path class="cls-1" d="M60.46,33.14A4.84,4.84,0,0,0,55.63,38V73.47a4.83,4.83,0,0,0,4.83,4.83h54.85a4.84,4.84,0,0,0,4.83-4.83V38a4.84,4.84,0,0,0-4.83-4.83ZM115.31,79.7H60.46a6.24,6.24,0,0,1-6.23-6.23V38a6.24,6.24,0,0,1,6.23-6.23h54.85A6.24,6.24,0,0,1,121.55,38V73.47A6.24,6.24,0,0,1,115.31,79.7Z"/><path class="cls-1" d="M120.14,52V45.59H55.63V52m65.91,1.4H54.22V44.19h67.32v9.24Z"/><path class="cls-1" d="M63.93,70.46H83.36v-5H63.93Zm20.84,1.4H62.52V64H84.77Z"/></svg>