<svg id="Arte" xmlns="http://www.w3.org/2000/svg" viewBox="0 0 297 93"><defs><style>.cls-1{fill:#383838;}.cls-2{fill:#a1ce52;}.cls-3{fill:#f9f9f9;}</style></defs><title>banner-compra-segura</title><path class="cls-1" d="M148.2,42.89a4.19,4.19,0,0,1-1.33,2.79,4.37,4.37,0,0,1-3,1,4,4,0,0,1-3.23-1.45,5.82,5.82,0,0,1-1.21-3.87V40.25a6.48,6.48,0,0,1,.57-2.79,4.23,4.23,0,0,1,1.61-1.85A4.47,4.47,0,0,1,144,35a4.11,4.11,0,0,1,2.91,1,4.24,4.24,0,0,1,1.27,2.8H146.7a3.27,3.27,0,0,0-.85-2,2.57,2.57,0,0,0-1.82-.61,2.68,2.68,0,0,0-2.25,1.06,4.88,4.88,0,0,0-.82,3v1.1a5,5,0,0,0,.77,2.95,2.5,2.5,0,0,0,2.16,1.09,2.89,2.89,0,0,0,1.92-.57,3.14,3.14,0,0,0,.89-2Z"/><path class="cls-1" d="M149.64,42.19a5,5,0,0,1,.49-2.23,3.64,3.64,0,0,1,1.36-1.53,3.7,3.7,0,0,1,2-.54,3.57,3.57,0,0,1,2.79,1.2,4.6,4.6,0,0,1,1.07,3.18v.1a5,5,0,0,1-.47,2.21,3.59,3.59,0,0,1-1.35,1.53,3.75,3.75,0,0,1-2,.55,3.56,3.56,0,0,1-2.79-1.2,4.58,4.58,0,0,1-1.07-3.16Zm1.45.17a3.61,3.61,0,0,0,.65,2.26,2.21,2.21,0,0,0,3.5,0,4,4,0,0,0,.65-2.42,3.61,3.61,0,0,0-.66-2.25,2.1,2.1,0,0,0-1.75-.86,2.08,2.08,0,0,0-1.73.85A3.93,3.93,0,0,0,151.09,42.37Z"/><path class="cls-1" d="M160.51,38l0,.94a3.12,3.12,0,0,1,2.51-1.09,2.42,2.42,0,0,1,2.41,1.36,3.2,3.2,0,0,1,1.1-1,3.24,3.24,0,0,1,1.6-.37q2.78,0,2.83,2.95V46.5h-1.45V40.92a1.94,1.94,0,0,0-.41-1.36,1.83,1.83,0,0,0-1.39-.45,1.92,1.92,0,0,0-1.34.48,2,2,0,0,0-.62,1.29V46.5h-1.45V41a1.61,1.61,0,0,0-1.8-1.84,1.93,1.93,0,0,0-1.95,1.21V46.5h-1.45V38Z"/><path class="cls-1" d="M180.31,42.37a5.06,5.06,0,0,1-.88,3.11A2.83,2.83,0,0,1,177,46.66a3.1,3.1,0,0,1-2.42-1v4.07h-1.45V38h1.32l.07.94A3,3,0,0,1,177,37.89,2.88,2.88,0,0,1,179.43,39a5.12,5.12,0,0,1,.89,3.2Zm-1.45-.16a3.74,3.74,0,0,0-.61-2.26,2,2,0,0,0-1.67-.83,2.13,2.13,0,0,0-2,1.16v4a2.13,2.13,0,0,0,2,1.16,2,2,0,0,0,1.65-.82A4.08,4.08,0,0,0,178.87,42.2Z"/><path class="cls-1" d="M186.24,39.34a4.37,4.37,0,0,0-.71-.05,1.91,1.91,0,0,0-1.93,1.21v6h-1.45V38h1.41l0,1a2.25,2.25,0,0,1,2-1.13,1.49,1.49,0,0,1,.64.11Z"/><path class="cls-1" d="M192.47,46.5a3,3,0,0,1-.2-.89,3.22,3.22,0,0,1-2.41,1,3,3,0,0,1-2.05-.71,2.29,2.29,0,0,1-.8-1.79,2.39,2.39,0,0,1,1-2.05,4.73,4.73,0,0,1,2.82-.73h1.41v-.66a1.63,1.63,0,0,0-.45-1.21,1.82,1.82,0,0,0-1.34-.45,2.11,2.11,0,0,0-1.3.39,1.15,1.15,0,0,0-.52.95h-1.45a2,2,0,0,1,.45-1.22,3.07,3.07,0,0,1,1.22-.93,4.11,4.11,0,0,1,1.69-.34,3.35,3.35,0,0,1,2.29.73,2.64,2.64,0,0,1,.86,2v3.89a4.75,4.75,0,0,0,.3,1.85v.13Zm-2.4-1.1a2.54,2.54,0,0,0,1.29-.35,2.13,2.13,0,0,0,.88-.91V42.4h-1.13q-2.66,0-2.66,1.55a1.31,1.31,0,0,0,.45,1.06A1.74,1.74,0,0,0,190.07,45.4Z"/><path class="cls-1" d="M204.52,46.5h-1.45V36.87l-2.91,1.07V36.62l4.14-1.55h.23Z"/><path class="cls-1" d="M215.88,41.65a6.61,6.61,0,0,1-.87,3.77,3.6,3.6,0,0,1-5.41,0,6.27,6.27,0,0,1-.91-3.61V39.91a6.46,6.46,0,0,1,.87-3.73,3.67,3.67,0,0,1,5.42,0,6.24,6.24,0,0,1,.89,3.63Zm-1.45-2a5.3,5.3,0,0,0-.52-2.68,1.78,1.78,0,0,0-1.63-.84,1.75,1.75,0,0,0-1.62.84,5.17,5.17,0,0,0-.52,2.57v2.31a5.38,5.38,0,0,0,.54,2.72,1.77,1.77,0,0,0,1.62.88,1.75,1.75,0,0,0,1.59-.83,5.19,5.19,0,0,0,.54-2.61Z"/><path class="cls-1" d="M224.87,41.65a6.61,6.61,0,0,1-.87,3.77,3.6,3.6,0,0,1-5.41,0,6.27,6.27,0,0,1-.91-3.61V39.91a6.46,6.46,0,0,1,.87-3.73,3.67,3.67,0,0,1,5.42,0,6.24,6.24,0,0,1,.89,3.63Zm-1.45-2a5.3,5.3,0,0,0-.52-2.68,1.78,1.78,0,0,0-1.63-.84,1.75,1.75,0,0,0-1.62.84,5.17,5.17,0,0,0-.52,2.57v2.31a5.38,5.38,0,0,0,.54,2.72,1.77,1.77,0,0,0,1.62.88,1.75,1.75,0,0,0,1.59-.83,5.19,5.19,0,0,0,.54-2.61Z"/><path class="cls-1" d="M226.59,37.31a2.31,2.31,0,0,1,.65-1.69,2.45,2.45,0,0,1,3.36,0,2.39,2.39,0,0,1,.64,1.73v.55a2.28,2.28,0,0,1-.65,1.68,2.25,2.25,0,0,1-1.66.65,2.29,2.29,0,0,1-1.68-.65,2.32,2.32,0,0,1-.66-1.74Zm1.08.6a1.48,1.48,0,0,0,.34,1,1.16,1.16,0,0,0,.92.4,1.14,1.14,0,0,0,.89-.38,1.53,1.53,0,0,0,.34-1v-.57a1.52,1.52,0,0,0-.34-1,1.25,1.25,0,0,0-1.83,0,1.56,1.56,0,0,0-.34,1Zm1.59,7.73-.82-.52L234,36.23l.82.52Zm2.87-1.93a2.29,2.29,0,0,1,.65-1.68,2.25,2.25,0,0,1,1.68-.66,2.27,2.27,0,0,1,1.68.66,2.36,2.36,0,0,1,.66,1.74v.55a2.3,2.3,0,0,1-.65,1.68,2.24,2.24,0,0,1-1.67.66A2.3,2.3,0,0,1,232.8,46a2.33,2.33,0,0,1-.66-1.74Zm1.08.61a1.49,1.49,0,0,0,.34,1,1.16,1.16,0,0,0,.92.4,1.13,1.13,0,0,0,.9-.39,1.55,1.55,0,0,0,.34-1.05v-.58a1.48,1.48,0,0,0-.34-1,1.25,1.25,0,0,0-1.81,0,1.51,1.51,0,0,0-.35,1Z"/><path class="cls-1" d="M166.7,64.16a.73.73,0,0,0-.41-.65,4.65,4.65,0,0,0-1.32-.43q-3-.63-3-2.56a2.32,2.32,0,0,1,.93-1.88,3.76,3.76,0,0,1,2.44-.75,4.06,4.06,0,0,1,2.57.76,2.39,2.39,0,0,1,1,2h-2.26a1.09,1.09,0,0,0-.31-.8,1.32,1.32,0,0,0-1-.32,1.35,1.35,0,0,0-.88.26.81.81,0,0,0-.31.66.69.69,0,0,0,.36.61,3.67,3.67,0,0,0,1.2.4,9.85,9.85,0,0,1,1.42.38,2.34,2.34,0,0,1,1.79,2.27,2.21,2.21,0,0,1-1,1.87,4.28,4.28,0,0,1-2.56.71,4.46,4.46,0,0,1-1.89-.38,3.16,3.16,0,0,1-1.29-1,2.41,2.41,0,0,1-.47-1.43h2.14a1.18,1.18,0,0,0,.45.92,1.76,1.76,0,0,0,1.11.32,1.64,1.64,0,0,0,1-.25A.77.77,0,0,0,166.7,64.16Z"/><path class="cls-1" d="M174.24,66.66a4.15,4.15,0,0,1-3-1.14,4.05,4.05,0,0,1-1.17-3v-.22a5.11,5.11,0,0,1,.49-2.28,3.62,3.62,0,0,1,1.39-1.55,3.91,3.91,0,0,1,2.06-.54A3.51,3.51,0,0,1,176.72,59a4.44,4.44,0,0,1,1,3.1V63h-5.38a2.1,2.1,0,0,0,.66,1.33,2,2,0,0,0,1.39.5,2.44,2.44,0,0,0,2-.95l1.11,1.24a3.39,3.39,0,0,1-1.37,1.12A4.51,4.51,0,0,1,174.24,66.66ZM174,59.71a1.41,1.41,0,0,0-1.09.46,2.36,2.36,0,0,0-.54,1.3h3.14v-.18a1.68,1.68,0,0,0-.41-1.17A1.46,1.46,0,0,0,174,59.71Z"/><path class="cls-1" d="M178.67,62.21a5,5,0,0,1,.93-3.13,3,3,0,0,1,2.5-1.19,2.63,2.63,0,0,1,2.16,1l.09-.8h2v8.17a3.61,3.61,0,0,1-.5,1.93,3.23,3.23,0,0,1-1.42,1.25,5,5,0,0,1-2.14.43,4.64,4.64,0,0,1-1.81-.37,3.21,3.21,0,0,1-1.34-1l1-1.37a2.65,2.65,0,0,0,2,.95,1.94,1.94,0,0,0,1.4-.48,1.8,1.8,0,0,0,.5-1.36v-.45a2.61,2.61,0,0,1-2.05.88,3,3,0,0,1-2.46-1.19,5,5,0,0,1-.94-3.16Zm2.26.17a3.08,3.08,0,0,0,.46,1.8,1.47,1.47,0,0,0,1.27.65,1.57,1.57,0,0,0,1.48-.77V60.5a1.56,1.56,0,0,0-1.46-.77,1.47,1.47,0,0,0-1.28.67A3.48,3.48,0,0,0,180.93,62.38Z"/><path class="cls-1" d="M193.2,65.64a2.83,2.83,0,0,1-2.31,1,2.67,2.67,0,0,1-2.07-.78,3.33,3.33,0,0,1-.73-2.29V58h2.26v5.47q0,1.32,1.2,1.32a1.63,1.63,0,0,0,1.58-.8V58h2.27V66.5h-2.12Z"/><path class="cls-1" d="M201.84,60.16a6.08,6.08,0,0,0-.81-.06,1.65,1.65,0,0,0-1.68.87V66.5h-2.26V58h2.13l.06,1a2.09,2.09,0,0,1,1.88-1.16,2.38,2.38,0,0,1,.7.1Z"/><path class="cls-1" d="M207.59,66.5a2.5,2.5,0,0,1-.23-.76,2.73,2.73,0,0,1-2.13.91,3,3,0,0,1-2.06-.72,2.31,2.31,0,0,1-.82-1.81,2.39,2.39,0,0,1,1-2.06,4.91,4.91,0,0,1,2.88-.73h1v-.48a1.39,1.39,0,0,0-.3-.94,1.18,1.18,0,0,0-.95-.35,1.34,1.34,0,0,0-.89.27.93.93,0,0,0-.32.75h-2.26a2.27,2.27,0,0,1,.45-1.36,3,3,0,0,1,1.28-1,4.66,4.66,0,0,1,1.86-.36,3.69,3.69,0,0,1,2.48.79,2.75,2.75,0,0,1,.92,2.21v3.66a4,4,0,0,0,.34,1.82v.13Zm-1.87-1.57a2,2,0,0,0,.92-.22,1.46,1.46,0,0,0,.63-.6V62.66h-.84q-1.7,0-1.8,1.17V64a.9.9,0,0,0,.3.7A1.15,1.15,0,0,0,205.72,64.93Z"/><path class="cls-1" d="M212.63,64.24a1.27,1.27,0,0,1,.92.34,1.23,1.23,0,0,1,0,1.71,1.41,1.41,0,0,1-1.83,0,1.13,1.13,0,0,1-.35-.85,1.15,1.15,0,0,1,.35-.86A1.25,1.25,0,0,1,212.63,64.24Zm.94-1.23h-1.87l-.27-7.88h2.41Z"/><rect class="cls-2" x="61.29" y="38.8" width="46.82" height="38.51" rx="3.05" ry="3.05"/><circle class="cls-3" cx="84.69" cy="55.23" r="5.59"/><path class="cls-1" d="M107.74,75.35a1.56,1.56,0,0,1-1.56,1.56h-43a1.56,1.56,0,0,1-1.56-1.56V40.76a1.56,1.56,0,0,1,1.56-1.56h43a1.56,1.56,0,0,1,1.56,1.56ZM71.49,30.46c0-8.2,5.67-14.38,13.2-14.38S97.9,21.9,97.9,29.92v7H71.49Zm33.89,6.44h-4.94V30.15c0-9.33-6.77-16.36-15.75-16.36S68.94,21.05,68.94,30.68V36.9H64a4.51,4.51,0,0,0-4.5,4.5v33.3a4.51,4.51,0,0,0,4.5,4.5h41.38a4.51,4.51,0,0,0,4.5-4.5V41.4A4.51,4.51,0,0,0,105.38,36.9Z"/><path class="cls-1" d="M84.69,60.66a5.43,5.43,0,1,1,5.43-5.43A5.44,5.44,0,0,1,84.69,60.66Zm0-13a7.55,7.55,0,0,0-1.37,15v7a1.5,1.5,0,0,0,3,0v-7a7.55,7.55,0,0,0-1.63-14.92Z"/></svg>