<svg id="Arte" xmlns="http://www.w3.org/2000/svg" viewBox="0 0 297 93"><defs><style>.cls-1{fill:#383838;}.cls-2{fill:#ffcc3e;}</style></defs><title>banner-assento</title><path class="cls-1" d="M124.79,41.24h-4.93v4h5.73V46.5h-7.23V35.13h7.15v1.23h-5.65V40h4.93Z"/><path class="cls-1" d="M132.15,44.26a1.06,1.06,0,0,0-.44-.91,4.26,4.26,0,0,0-1.54-.56,7.27,7.27,0,0,1-1.74-.56,2.48,2.48,0,0,1-1-.78,1.86,1.86,0,0,1-.31-1.08,2.19,2.19,0,0,1,.88-1.76,3.43,3.43,0,0,1,2.25-.72,3.53,3.53,0,0,1,2.33.74,2.36,2.36,0,0,1,.89,1.9h-1.45a1.31,1.31,0,0,0-.5-1,1.89,1.89,0,0,0-1.27-.43,2,2,0,0,0-1.23.34,1.08,1.08,0,0,0-.45.9.88.88,0,0,0,.41.79,5.09,5.09,0,0,0,1.5.51,7.8,7.8,0,0,1,1.75.58,2.56,2.56,0,0,1,1,.81,2,2,0,0,1,.32,1.15,2.16,2.16,0,0,1-.91,1.82,3.8,3.8,0,0,1-2.35.68,4.26,4.26,0,0,1-1.8-.36,2.92,2.92,0,0,1-1.22-1,2.42,2.42,0,0,1-.44-1.39h1.45a1.5,1.5,0,0,0,.58,1.15,2.26,2.26,0,0,0,1.43.43,2.33,2.33,0,0,0,1.32-.33A1,1,0,0,0,132.15,44.26Z"/><path class="cls-1" d="M138.87,45.48a2.08,2.08,0,0,0,1.35-.47,1.65,1.65,0,0,0,.64-1.17h1.37a2.63,2.63,0,0,1-.5,1.38,3.3,3.3,0,0,1-1.23,1,3.55,3.55,0,0,1-1.63.39,3.48,3.48,0,0,1-2.75-1.15,4.59,4.59,0,0,1-1-3.15v-.24a5.09,5.09,0,0,1,.45-2.2,3.45,3.45,0,0,1,1.3-1.49,3.7,3.7,0,0,1,2-.53,3.39,3.39,0,0,1,2.36.85,3,3,0,0,1,1,2.21h-1.37a2,2,0,0,0-.62-1.35,1.93,1.93,0,0,0-1.38-.53,2,2,0,0,0-1.71.79,3.72,3.72,0,0,0-.61,2.29v.27a3.65,3.65,0,0,0,.6,2.25A2,2,0,0,0,138.87,45.48Z"/><path class="cls-1" d="M143.47,42.2A5,5,0,0,1,144,40a3.64,3.64,0,0,1,1.36-1.53,3.7,3.7,0,0,1,2-.54,3.57,3.57,0,0,1,2.79,1.2,4.6,4.6,0,0,1,1.07,3.18v.1a5,5,0,0,1-.47,2.21,3.59,3.59,0,0,1-1.35,1.53,3.75,3.75,0,0,1-2,.55,3.56,3.56,0,0,1-2.79-1.2,4.58,4.58,0,0,1-1.07-3.16Zm1.45.17a3.61,3.61,0,0,0,.65,2.26,2.21,2.21,0,0,0,3.5,0,4,4,0,0,0,.65-2.42,3.61,3.61,0,0,0-.66-2.25,2.1,2.1,0,0,0-1.75-.86,2.08,2.08,0,0,0-1.73.85A3.93,3.93,0,0,0,144.92,42.37Z"/><path class="cls-1" d="M154.55,46.5H153.1v-12h1.45Z"/><path class="cls-1" d="M158.31,39.07a3.07,3.07,0,0,1,2.5-1.18q2.68,0,2.7,3V46.5h-1.45V40.91a2,2,0,0,0-.42-1.35,1.68,1.68,0,0,0-1.28-.44,2.09,2.09,0,0,0-1.23.38,2.54,2.54,0,0,0-.83,1v6h-1.45v-12h1.45Z"/><path class="cls-1" d="M170.89,46.5a3,3,0,0,1-.2-.89,3.22,3.22,0,0,1-2.41,1,3,3,0,0,1-2.05-.71,2.29,2.29,0,0,1-.8-1.79,2.39,2.39,0,0,1,1-2.05,4.73,4.73,0,0,1,2.82-.73h1.41v-.66a1.63,1.63,0,0,0-.45-1.21,1.82,1.82,0,0,0-1.34-.45,2.11,2.11,0,0,0-1.3.39,1.15,1.15,0,0,0-.52.95H165.6a2,2,0,0,1,.45-1.22,3.07,3.07,0,0,1,1.22-.93,4.1,4.1,0,0,1,1.69-.34,3.34,3.34,0,0,1,2.29.73,2.64,2.64,0,0,1,.86,2v3.89a4.75,4.75,0,0,0,.3,1.85v.13Zm-2.4-1.1a2.54,2.54,0,0,0,1.29-.35,2.13,2.13,0,0,0,.88-.91V42.4h-1.13q-2.66,0-2.66,1.55a1.31,1.31,0,0,0,.45,1.06A1.74,1.74,0,0,0,168.49,45.4Z"/><path class="cls-1" d="M178,42.2a5,5,0,0,1,.49-2.23,3.64,3.64,0,0,1,1.36-1.53,3.7,3.7,0,0,1,2-.54,3.57,3.57,0,0,1,2.79,1.2,4.6,4.6,0,0,1,1.07,3.18v.1a5,5,0,0,1-.47,2.21,3.59,3.59,0,0,1-1.35,1.53,3.75,3.75,0,0,1-2,.55,3.56,3.56,0,0,1-2.79-1.2A4.58,4.58,0,0,1,178,42.3Zm1.45.17a3.61,3.61,0,0,0,.65,2.26,2.21,2.21,0,0,0,3.5,0,4,4,0,0,0,.65-2.42,3.61,3.61,0,0,0-.66-2.25,2.1,2.1,0,0,0-1.75-.86,2.08,2.08,0,0,0-1.73.85A3.93,3.93,0,0,0,179.41,42.37Z"/><path class="cls-1" d="M193.31,38l.07.95a3,3,0,0,1,2.43-1.1,2.25,2.25,0,0,1,2.24,1.29,2.9,2.9,0,0,1,2.54-1.29,2.52,2.52,0,0,1,2,.8,3.68,3.68,0,0,1,.67,2.41v5.4H201V41.11a1.61,1.61,0,0,0-.28-1.05,1.25,1.25,0,0,0-1-.33,1.41,1.41,0,0,0-1.41,1v5.8h-2.26V41.12a1.59,1.59,0,0,0-.29-1.06,1.26,1.26,0,0,0-1-.33,1.46,1.46,0,0,0-1.39.8v6H191.2V38Z"/><path class="cls-1" d="M208.94,46.66a4.15,4.15,0,0,1-3-1.14,4.05,4.05,0,0,1-1.17-3v-.22a5.11,5.11,0,0,1,.49-2.28,3.62,3.62,0,0,1,1.39-1.55,3.92,3.92,0,0,1,2.06-.54A3.51,3.51,0,0,1,211.42,39a4.44,4.44,0,0,1,1,3.1V43H207a2.1,2.1,0,0,0,.66,1.33,2,2,0,0,0,1.39.5,2.44,2.44,0,0,0,2-.95l1.11,1.24a3.39,3.39,0,0,1-1.37,1.12A4.51,4.51,0,0,1,208.94,46.66Zm-.26-6.95a1.41,1.41,0,0,0-1.09.46,2.36,2.36,0,0,0-.54,1.3h3.14v-.18a1.68,1.68,0,0,0-.41-1.17A1.45,1.45,0,0,0,208.68,39.71Z"/><path class="cls-1" d="M216.08,46.5h-2.27v-12h2.27Z"/><path class="cls-1" d="M220.14,39a2.82,2.82,0,0,1,2.26-1.08q2.75,0,2.79,3.2V46.5h-2.26V41.15a1.57,1.57,0,0,0-.31-1.07,1.34,1.34,0,0,0-1-.35,1.54,1.54,0,0,0-1.44.77v6h-2.26v-12h2.26Z"/><path class="cls-1" d="M226.54,42.2A5,5,0,0,1,227,40a3.54,3.54,0,0,1,1.39-1.52,4.07,4.07,0,0,1,2.11-.54,3.85,3.85,0,0,1,2.79,1,4.2,4.2,0,0,1,1.21,2.84l0,.58a4.42,4.42,0,0,1-1.09,3.12,4.21,4.21,0,0,1-5.83,0,4.5,4.5,0,0,1-1.09-3.19Zm2.26.16a3.16,3.16,0,0,0,.45,1.84,1.63,1.63,0,0,0,2.58,0,3.46,3.46,0,0,0,.46-2,3.13,3.13,0,0,0-.46-1.83,1.5,1.5,0,0,0-1.3-.65,1.47,1.47,0,0,0-1.28.65A3.51,3.51,0,0,0,228.8,42.36Z"/><path class="cls-1" d="M240.69,40.16a6.25,6.25,0,0,0-.81-.06,1.65,1.65,0,0,0-1.68.87V46.5h-2.26V38h2.13l.06,1A2.09,2.09,0,0,1,240,37.89a2.38,2.38,0,0,1,.7.1Z"/><path class="cls-1" d="M154.14,66.5a2.5,2.5,0,0,1-.23-.76,2.73,2.73,0,0,1-2.13.91,3,3,0,0,1-2.06-.72,2.31,2.31,0,0,1-.82-1.81,2.39,2.39,0,0,1,1-2.06,4.91,4.91,0,0,1,2.88-.73h1v-.48a1.39,1.39,0,0,0-.3-.94,1.18,1.18,0,0,0-.95-.35,1.34,1.34,0,0,0-.89.27.93.93,0,0,0-.32.75h-2.26a2.27,2.27,0,0,1,.45-1.36,3,3,0,0,1,1.28-1,4.66,4.66,0,0,1,1.86-.36,3.69,3.69,0,0,1,2.48.79,2.75,2.75,0,0,1,.92,2.21v3.66a4,4,0,0,0,.34,1.82v.13Zm-1.87-1.57a2,2,0,0,0,.92-.22,1.46,1.46,0,0,0,.63-.6V62.66H153q-1.7,0-1.8,1.17V64a.9.9,0,0,0,.3.7A1.15,1.15,0,0,0,152.27,64.93Z"/><path class="cls-1" d="M162.39,64.16a.73.73,0,0,0-.41-.65,4.65,4.65,0,0,0-1.32-.43q-3-.63-3-2.56a2.32,2.32,0,0,1,.93-1.88,3.76,3.76,0,0,1,2.44-.75,4.06,4.06,0,0,1,2.57.76,2.39,2.39,0,0,1,1,2h-2.26a1.09,1.09,0,0,0-.31-.8,1.32,1.32,0,0,0-1-.32,1.35,1.35,0,0,0-.88.26.81.81,0,0,0-.31.66.69.69,0,0,0,.36.61,3.67,3.67,0,0,0,1.2.4,9.85,9.85,0,0,1,1.42.38,2.34,2.34,0,0,1,1.79,2.27,2.21,2.21,0,0,1-1,1.87,4.28,4.28,0,0,1-2.56.71,4.46,4.46,0,0,1-1.89-.38,3.16,3.16,0,0,1-1.29-1,2.41,2.41,0,0,1-.47-1.43h2.14a1.18,1.18,0,0,0,.45.92,1.76,1.76,0,0,0,1.11.32,1.64,1.64,0,0,0,1-.25A.77.77,0,0,0,162.39,64.16Z"/><path class="cls-1" d="M170.62,64.16a.73.73,0,0,0-.41-.65,4.65,4.65,0,0,0-1.32-.43q-3-.63-3-2.56a2.32,2.32,0,0,1,.93-1.88,3.76,3.76,0,0,1,2.44-.75,4.06,4.06,0,0,1,2.57.76,2.39,2.39,0,0,1,1,2h-2.26a1.09,1.09,0,0,0-.31-.8,1.32,1.32,0,0,0-1-.32,1.35,1.35,0,0,0-.88.26.81.81,0,0,0-.31.66.69.69,0,0,0,.36.61,3.67,3.67,0,0,0,1.2.4,9.85,9.85,0,0,1,1.42.38,2.34,2.34,0,0,1,1.79,2.27,2.21,2.21,0,0,1-1,1.87,4.28,4.28,0,0,1-2.56.71,4.46,4.46,0,0,1-1.89-.38,3.16,3.16,0,0,1-1.29-1,2.41,2.41,0,0,1-.47-1.43h2.14a1.18,1.18,0,0,0,.45.92,1.76,1.76,0,0,0,1.11.32,1.64,1.64,0,0,0,1-.25A.77.77,0,0,0,170.62,64.16Z"/><path class="cls-1" d="M178.16,66.66a4.15,4.15,0,0,1-3-1.14,4.05,4.05,0,0,1-1.17-3v-.22a5.11,5.11,0,0,1,.49-2.28,3.62,3.62,0,0,1,1.39-1.55,3.91,3.91,0,0,1,2.06-.54A3.51,3.51,0,0,1,180.64,59a4.44,4.44,0,0,1,1,3.1V63h-5.38a2.1,2.1,0,0,0,.66,1.33,2,2,0,0,0,1.39.5,2.44,2.44,0,0,0,2-.95l1.11,1.24a3.39,3.39,0,0,1-1.37,1.12A4.51,4.51,0,0,1,178.16,66.66Zm-.26-6.95a1.41,1.41,0,0,0-1.09.46,2.36,2.36,0,0,0-.54,1.3h3.14v-.18a1.68,1.68,0,0,0-.41-1.17A1.46,1.46,0,0,0,177.9,59.71Z"/><path class="cls-1" d="M185,58l.07,1a3,3,0,0,1,2.43-1.13,2.45,2.45,0,0,1,2,.79,3.68,3.68,0,0,1,.67,2.36V66.5h-2.26V61.09a1.47,1.47,0,0,0-.31-1,1.4,1.4,0,0,0-1-.32,1.55,1.55,0,0,0-1.43.81v6h-2.26V58Z"/><path class="cls-1" d="M194.58,56V58H196V59.7h-1.45v4.22a1,1,0,0,0,.18.67.9.9,0,0,0,.69.2,3.63,3.63,0,0,0,.66-.05v1.71a4.64,4.64,0,0,1-1.37.2,2.16,2.16,0,0,1-2.42-2.4V59.7h-1.23V58h1.23V56Z"/><path class="cls-1" d="M196.7,62.2a5,5,0,0,1,.48-2.24,3.54,3.54,0,0,1,1.39-1.52,4.07,4.07,0,0,1,2.11-.54,3.85,3.85,0,0,1,2.79,1,4.2,4.2,0,0,1,1.21,2.84l0,.58a4.42,4.42,0,0,1-1.09,3.12,4.21,4.21,0,0,1-5.83,0,4.5,4.5,0,0,1-1.09-3.19Zm2.26.16a3.16,3.16,0,0,0,.45,1.84,1.63,1.63,0,0,0,2.58,0,3.46,3.46,0,0,0,.46-2,3.13,3.13,0,0,0-.46-1.83,1.5,1.5,0,0,0-1.3-.65,1.47,1.47,0,0,0-1.28.65A3.51,3.51,0,0,0,199,62.36Z"/><path class="cls-1" d="M207.46,64.24a1.27,1.27,0,0,1,.92.34,1.23,1.23,0,0,1,0,1.71,1.41,1.41,0,0,1-1.83,0,1.13,1.13,0,0,1-.35-.85,1.15,1.15,0,0,1,.35-.86A1.25,1.25,0,0,1,207.46,64.24Zm.94-1.23h-1.87l-.27-7.88h2.41Z"/><path class="cls-2" d="M100.9,70.82A6,6,0,0,1,96.66,69l-9-9a20.67,20.67,0,0,1-10.55,2.83,20,20,0,0,1-14.43-6A20.4,20.4,0,0,1,77.23,22.18a19.88,19.88,0,0,1,14.33,6,20.14,20.14,0,0,1,3,24.88L107.87,66.3,105.14,69A6,6,0,0,1,100.9,70.82ZM77.12,31.94a10.69,10.69,0,0,0-7.43,3.14l-.18.15-.1.08,0,.09-.05.05a10.56,10.56,0,0,0,.39,14.44A10.68,10.68,0,0,0,77.12,53a10.52,10.52,0,0,0,7.41-17.95A10.11,10.11,0,0,0,77.12,31.94Z"/><path class="cls-1" d="M77.23,22.93a19.6,19.6,0,0,1,16.41,30.2L106.8,66.3l-2.2,2.19a5.17,5.17,0,0,1-7.42,0l-9.41-9.41a19.79,19.79,0,0,1-10.66,3,19.27,19.27,0,0,1-13.9-5.75,19.62,19.62,0,0,1,.11-27.69,19.88,19.88,0,0,1,13.9-5.75m-.1,30.83a11.29,11.29,0,0,0,7.94-19.23,10.82,10.82,0,0,0-7.94-3.34,11.42,11.42,0,0,0-7.94,3.34c-.1.1-.31.21-.42.42a11.3,11.3,0,0,0,8.36,18.81m.1-32.33a21.15,21.15,0,0,0-15.07,36,20.75,20.75,0,0,0,15,6.19A21.47,21.47,0,0,0,87.55,61l8.58,8.58a6.67,6.67,0,0,0,9.54,0l2.19-2.19,1.06-1.06-1.06-1.06L95.54,52.92a20.89,20.89,0,0,0-3.44-25.29,20.62,20.62,0,0,0-14.86-6.2ZM70,35.78l.22-.19a9.92,9.92,0,0,1,6.88-2.9A9.36,9.36,0,0,1,84,35.57a9.79,9.79,0,0,1-6.86,16.7,10,10,0,0,1-6.91-2.93,9.81,9.81,0,0,1-.33-13.39L70,35.8Z"/></svg>