<?xml version="1.0" encoding="utf-8"?>
<!-- Generator: Adobe Illustrator 19.2.0, SVG Export Plug-In . SVG Version: 6.00 Build 0)  -->
<svg version="1.1" id="Layer_1" xmlns="http://www.w3.org/2000/svg" xmlns:xlink="http://www.w3.org/1999/xlink" x="0px" y="0px"
	 viewBox="0 0 34 34" style="enable-background:new 0 0 34 34;" xml:space="preserve">
<style type="text/css">
	.st0{fill:#3B5998;}
	.st1{fill:#FFFFFF;}
</style>
<g>
	<path id="Blue_4_" class="st0" d="M32.1,34c1,0,1.9-0.8,1.9-1.9V1.9c0-1-0.8-1.9-1.9-1.9H1.9C0.8,0,0,0.8,0,1.9v30.2
		c0,1,0.8,1.9,1.9,1.9C1.9,34,32.1,34,32.1,34z"/>
	<path id="f_2_" class="st1" d="M23.5,31.4V18.3h4.4l0.7-5.1h-5.1V9.9c0-1.5,0.4-2.5,2.5-2.5h2.7V2.8c-0.5-0.1-2.1-0.2-4-0.2
		c-3.9,0-6.6,2.4-6.6,6.8v3.8h-4.4v5.1h4.4v13.2L23.5,31.4L23.5,31.4z"/>
</g>
</svg>
