<svg id="Layer_1" data-name="Layer 1" xmlns="http://www.w3.org/2000/svg" xmlns:xlink="http://www.w3.org/1999/xlink" viewBox="0 0 34 33.99"><defs><style>.cls-1{fill:url(#radial-gradient);}.cls-2{fill:url(#radial-gradient-2);}.cls-3{fill:#fff;}</style><radialGradient id="radial-gradient" cx="212.59" cy="-530.18" r="17" gradientTransform="matrix(0, -1.98, -1.84, 0, -968.56, 457.96)" gradientUnits="userSpaceOnUse"><stop offset="0" stop-color="#fd5"/><stop offset="0.1" stop-color="#fd5"/><stop offset="0.5" stop-color="#ff543e"/><stop offset="1" stop-color="#c837ab"/></radialGradient><radialGradient id="radial-gradient-2" cx="141.94" cy="-436.19" r="17" gradientTransform="matrix(0.17, 0.87, 3.58, -0.72, 1531.97, -433.68)" gradientUnits="userSpaceOnUse"><stop offset="0" stop-color="#3771c8"/><stop offset="0.13" stop-color="#3771c8"/><stop offset="1" stop-color="#60f" stop-opacity="0"/></radialGradient></defs><title>instagram</title><path class="cls-1" d="M17,0C9.91,0,7.83,0,7.43,0A8.43,8.43,0,0,0,4.08.88a6.79,6.79,0,0,0-2,1.43,7.3,7.3,0,0,0-2,4.13,30.68,30.68,0,0,0-.16,5C0,12.82,0,14.6,0,17c0,7.09,0,9.17,0,9.57a8.54,8.54,0,0,0,.81,3.28A7.16,7.16,0,0,0,5.5,33.63,12.06,12.06,0,0,0,8,34c.42,0,4.71,0,9,0s8.59,0,9,0a11.61,11.61,0,0,0,2.56-.33,7.12,7.12,0,0,0,4.64-3.8,8.4,8.4,0,0,0,.8-3.22c0-.29,0-5,0-9.63s0-9.32,0-9.62a8.3,8.3,0,0,0-.82-3.25,6.74,6.74,0,0,0-1.46-2,7.34,7.34,0,0,0-4.14-2,30.64,30.64,0,0,0-5-.16Z"/><path class="cls-2" d="M17,0C9.91,0,7.83,0,7.43,0A8.43,8.43,0,0,0,4.08.88a6.79,6.79,0,0,0-2,1.43,7.3,7.3,0,0,0-2,4.13,30.68,30.68,0,0,0-.16,5C0,12.82,0,14.6,0,17c0,7.09,0,9.17,0,9.57a8.54,8.54,0,0,0,.81,3.28A7.16,7.16,0,0,0,5.5,33.63,12.06,12.06,0,0,0,8,34c.42,0,4.71,0,9,0s8.59,0,9,0a11.61,11.61,0,0,0,2.56-.33,7.12,7.12,0,0,0,4.64-3.8,8.4,8.4,0,0,0,.8-3.22c0-.29,0-5,0-9.63s0-9.32,0-9.62a8.3,8.3,0,0,0-.82-3.25,6.74,6.74,0,0,0-1.46-2,7.34,7.34,0,0,0-4.14-2,30.64,30.64,0,0,0-5-.16Z"/><path class="cls-3" d="M17,4.45c-3.41,0-3.84,0-5.18.08a9.21,9.21,0,0,0-3,.58A6.42,6.42,0,0,0,5.1,8.77a9.17,9.17,0,0,0-.58,3c-.06,1.34-.08,1.77-.08,5.18s0,3.84.08,5.17a9.22,9.22,0,0,0,.58,3,6.42,6.42,0,0,0,3.67,3.67,9.22,9.22,0,0,0,3,.58c1.34.06,1.77.08,5.17.08s3.84,0,5.17-.08a9.22,9.22,0,0,0,3-.58,6.43,6.43,0,0,0,3.67-3.67,9.3,9.3,0,0,0,.58-3c.06-1.34.08-1.77.08-5.17s0-3.84-.08-5.18a9.3,9.3,0,0,0-.58-3A6.42,6.42,0,0,0,25.22,5.1a9.24,9.24,0,0,0-3-.58c-1.34-.06-1.77-.08-5.17-.08ZM15.87,6.71H17c3.35,0,3.75,0,5.07.07a7,7,0,0,1,2.33.43,4.16,4.16,0,0,1,2.38,2.38,6.94,6.94,0,0,1,.43,2.33c.06,1.32.07,1.72.07,5.07s0,3.75-.07,5.07a6.94,6.94,0,0,1-.43,2.33,4.16,4.16,0,0,1-2.38,2.38,6.92,6.92,0,0,1-2.33.43c-1.32.06-1.72.07-5.07.07s-3.75,0-5.07-.07a7,7,0,0,1-2.33-.43,4.16,4.16,0,0,1-2.38-2.38,6.94,6.94,0,0,1-.43-2.33c-.06-1.32-.07-1.72-.07-5.07s0-3.75.07-5.07a7,7,0,0,1,.43-2.33A4.16,4.16,0,0,1,9.6,7.21a6.93,6.93,0,0,1,2.33-.43c1.16-.05,1.61-.07,3.95-.07ZM23.7,8.79A1.51,1.51,0,1,0,25.2,10.3,1.51,1.51,0,0,0,23.7,8.79ZM17,10.55A6.45,6.45,0,1,0,23.44,17,6.45,6.45,0,0,0,17,10.55Zm0,2.26A4.18,4.18,0,1,1,12.81,17,4.18,4.18,0,0,1,17,12.81Z"/></svg>