<?xml version="1.0" encoding="utf-8"?>
<!-- Generator: Adobe Illustrator 19.2.0, SVG Export Plug-In . SVG Version: 6.00 Build 0)  -->
<svg version="1.1" id="Layer_1" xmlns="http://www.w3.org/2000/svg" xmlns:xlink="http://www.w3.org/1999/xlink" x="0px" y="0px"
	 viewBox="0 0 34 34" style="enable-background:new 0 0 34 34;" xml:space="preserve">
<style type="text/css">
	.st0{fill:#55ACEE;}
	.st1{fill:#FFFFFF;}
</style>
<g>
	<path id="Blue_3_" class="st0" d="M32.1,34c1,0,1.9-0.8,1.9-1.9V1.9c0-1-0.8-1.9-1.9-1.9H1.9C0.8,0,0,0.8,0,1.9v30.2
		c0,1,0.8,1.9,1.9,1.9H32.1z"/>
	<path class="st1" d="M27.9,10.3c-0.8,0.4-1.7,0.6-2.6,0.7c0.9-0.6,1.6-1.4,2-2.5c-0.9,0.5-1.8,0.9-2.8,1.1c-0.8-0.9-2-1.4-3.3-1.4
		c-2.5,0-4.5,2-4.5,4.5c0,0.3,0,0.7,0.1,1c-3.7-0.2-7-2-9.2-4.7C7.3,9.6,7,10.4,7,11.2c0,1.5,0.8,2.9,2,3.7c-0.7,0-1.4-0.2-2-0.6
		c0,0,0,0,0,0.1c0,2.2,1.5,4,3.6,4.4C10.2,18.9,9.8,19,9.4,19c-0.3,0-0.6,0-0.8-0.1c0.6,1.8,2.2,3.1,4.2,3.1
		c-1.5,1.2-3.4,1.9-5.5,1.9c-0.4,0-0.7,0-1.1-0.1c2,1.3,4.3,2,6.8,2c8.2,0,12.7-6.8,12.7-12.7c0-0.2,0-0.4,0-0.6
		C26.5,11.9,27.3,11.2,27.9,10.3z"/>
</g>
</svg>
