<?xml version="1.0" encoding="utf-8"?>
<!-- Generator: Adobe Illustrator 19.2.0, SVG Export Plug-In . SVG Version: 6.00 Build 0)  -->
<svg version="1.1" id="Layer_1" xmlns="http://www.w3.org/2000/svg" xmlns:xlink="http://www.w3.org/1999/xlink" x="0px" y="0px"
	 viewBox="0 0 34 32.3" style="enable-background:new 0 0 34 32.3;" xml:space="preserve">
<style type="text/css">
	.st0{fill:url(#SVGID_1_);}
	.st1{fill-opacity:0.25;}
	.st2{fill:#FFFFFF;}
</style>
<linearGradient id="SVGID_1_" gradientUnits="userSpaceOnUse" x1="17" y1="32.3495" x2="17" y2="-4.947651e-10">
	<stop  offset="0" style="stop-color:#B31217"/>
	<stop  offset="1.000000e-02" style="stop-color:#B31217"/>
	<stop  offset="1" style="stop-color:#E52D27"/>
</linearGradient>
<path class="st0" d="M28,32.3H6c-3.3,0-6-2.7-6-6V6c0-3.3,2.7-6,6-6h22c3.3,0,6,2.7,6,6v20.3C34,29.6,31.3,32.3,28,32.3z"/>
<g>
	<path id="The_Sharpness" class="st1" d="M14.5,13.2l5.4,3.6l0.7-0.4L14.5,13.2z"/>
	<path id="Icon" class="st2" d="M16.9,8.4L16.9,8.4c0,0-4.8,0-8,0.2c-0.4,0.1-1.4,0.1-2.3,1c-0.7,0.7-0.9,2.3-0.9,2.3
		s-0.2,1.9-0.2,3.7v1.7c0,1.9,0.2,3.7,0.2,3.7s0.2,1.6,0.9,2.3c0.9,0.9,2,0.9,2.5,1c1.8,0.2,7.8,0.2,7.8,0.2l0,0c0,0,4.8,0,8-0.2
		c0.4-0.1,1.4-0.1,2.3-1c0.7-0.7,0.9-2.3,0.9-2.3s0.2-1.9,0.2-3.7v-1.7c0-1.9-0.2-3.7-0.2-3.7s-0.2-1.6-0.9-2.3
		c-0.9-0.9-1.8-0.9-2.3-1C21.7,8.4,16.9,8.4,16.9,8.4 M14.5,13.2l6.1,3.2l-6.1,3.3V13.2z"/>
</g>
</svg>
